<?xml version="1.0" standalone="no"?>
<!DOCTYPE svg PUBLIC "-//W3C//DTD SVG 20010904//EN"
 "http://www.w3.org/TR/2001/REC-SVG-20010904/DTD/svg10.dtd">
<svg version="1.0" xmlns="http://www.w3.org/2000/svg"
 width="400.000000pt" height="400.000000pt" viewBox="0 0 400.000000 400.000000"
 preserveAspectRatio="xMidYMid meet">
<metadata>
Created by potrace 1.11, written by Peter Selinger 2001-2013
</metadata>
<g transform="translate(0.000000,400.000000) scale(0.100000,-0.100000)"
fill="#000000" stroke="none">
<path d="M1 3508 c1 -448 3 -487 15 -423 20 99 68 188 142 262 34 34 62 71 62
80 0 10 -42 142 -94 293 -67 199 -98 276 -110 278 -15 3 -16 -36 -15 -490z"/>
<path d="M80 3996 c0 -13 174 -513 182 -523 8 -9 19 -4 46 22 21 19 66 46 102
61 36 14 90 37 120 51 62 28 192 119 209 146 10 15 5 40 -26 133 l-37 114
-298 0 c-164 0 -298 -2 -298 -4z"/>
<path d="M810 3989 c0 -6 9 -32 21 -59 l21 -49 52 42 c29 23 63 50 76 59 24
16 22 17 -72 17 -63 1 -98 -3 -98 -10z"/>
<path d="M3331 3993 c1 -13 164 -154 213 -184 25 -16 72 -40 106 -53 l60 -25
0 22 c0 12 -17 72 -38 132 l-37 110 -152 3 c-84 1 -153 -1 -152 -5z"/>
<path d="M3680 3998 c0 -10 72 -214 89 -254 12 -27 33 -56 49 -66 15 -9 56
-35 92 -57 36 -23 71 -41 78 -41 9 0 12 49 12 210 l0 210 -160 0 c-88 0 -160
-1 -160 -2z"/>
<path d="M2175 3831 c-22 -4 -76 -15 -120 -24 -44 -9 -177 -23 -295 -32 -118
-9 -235 -20 -260 -26 -66 -15 -299 -132 -351 -177 -24 -21 -75 -53 -112 -72
-221 -112 -419 -370 -537 -700 -19 -52 -60 -145 -91 -206 -31 -61 -69 -149
-84 -194 -25 -75 -27 -92 -22 -179 4 -64 14 -122 32 -175 16 -50 31 -130 40
-213 15 -144 38 -208 95 -268 15 -16 31 -45 35 -64 18 -86 73 -161 154 -211
39 -25 47 -37 80 -122 99 -252 237 -445 406 -571 91 -68 133 -90 284 -152 478
-194 802 -247 1056 -171 508 152 875 511 1000 979 13 49 32 96 42 105 85 79
160 252 170 393 14 203 -84 409 -233 493 -32 18 -43 33 -64 90 l-27 69 48 94
c26 51 52 116 58 143 14 64 14 191 0 249 -14 64 -68 169 -122 239 -26 33 -47
64 -47 68 0 4 -18 38 -40 75 -127 214 -546 488 -835 547 -72 15 -214 22 -260
13z m190 -741 c171 -24 255 -56 452 -171 150 -88 271 -178 301 -222 32 -47
102 -171 102 -180 0 -3 -28 7 -62 23 -71 34 -101 38 -96 15 2 -9 46 -37 98
-63 103 -51 108 -57 159 -190 l21 -52 -68 6 c-186 17 -352 -88 -448 -287 -120
-246 -39 -536 181 -647 91 -45 272 -55 359 -18 22 9 41 14 44 12 8 -8 -47
-175 -84 -255 -130 -283 -399 -525 -731 -655 -217 -86 -355 -98 -588 -52 -169
34 -284 71 -565 181 -251 98 -397 232 -538 493 -40 73 -112 237 -112 255 0 1
24 3 53 2 38 0 52 4 52 14 0 10 -26 19 -82 30 -99 20 -154 55 -197 124 -53 85
-39 211 32 289 46 51 100 78 180 89 76 11 83 14 75 35 -5 13 -16 15 -65 10
-33 -4 -71 -12 -85 -17 l-26 -10 7 63 c10 85 40 203 77 296 184 465 609 801
1109 877 103 16 349 18 445 5z m986 -880 c173 -54 269 -207 270 -429 0 -65 -5
-103 -22 -151 -48 -138 -130 -244 -225 -290 -72 -35 -208 -40 -301 -11 -172
53 -273 199 -273 394 0 334 273 575 551 487z"/>
<path d="M2125 2819 c-132 -17 -327 -83 -333 -113 -5 -22 32 -20 85 4 70 31
182 58 294 71 94 10 111 10 139 -5 18 -8 36 -13 41 -10 20 12 7 36 -26 50 -38
15 -93 16 -200 3z"/>
<path d="M1935 2537 c-313 -104 -464 -452 -320 -737 98 -193 349 -312 564
-266 133 28 231 86 311 182 221 266 118 692 -197 815 -89 35 -263 38 -358 6z
m328 -28 c322 -107 424 -543 185 -795 -124 -131 -295 -187 -464 -151 -234 50
-394 237 -394 461 0 136 43 245 136 345 80 87 197 147 319 164 52 8 158 -4
218 -24z"/>
<path d="M2077 2123 c-4 -3 -7 -17 -7 -29 0 -13 -10 -32 -22 -43 l-21 -20 29
-30 c17 -17 45 -32 67 -36 33 -6 37 -5 37 13 0 11 7 22 15 26 27 10 18 43 -15
50 -23 4 -30 11 -30 29 0 35 -33 60 -53 40z"/>
<path d="M2714 1486 c-3 -8 13 -41 35 -73 57 -84 64 -164 17 -195 -41 -28
-123 12 -185 91 -34 42 -61 53 -61 25 0 -25 64 -98 116 -133 68 -44 124 -43
170 3 29 29 34 41 34 83 0 57 -33 130 -80 181 -35 36 -38 38 -46 18z"/>
<path d="M2584 983 c-10 -60 -45 -175 -64 -213 -23 -44 -65 -84 -79 -75 -6 3
-11 35 -11 71 0 51 -3 64 -16 64 -8 0 -22 -17 -30 -37 -39 -102 -87 -165 -112
-149 -19 12 -21 70 -6 147 17 82 15 96 -10 86 -14 -6 -46 -123 -46 -172 0 -40
26 -92 49 -100 32 -10 56 2 96 46 36 40 37 41 51 20 35 -49 104 -10 153 87 22
43 56 158 66 220 6 38 5 42 -14 42 -15 0 -22 -9 -27 -37z"/>
<path d="M3121 1826 c-10 -12 -18 -13 -36 -4 -25 11 -55 5 -55 -12 0 -5 9 -19
19 -29 11 -11 21 -27 23 -38 3 -14 11 -17 38 -15 50 5 73 33 62 74 -9 36 -32
47 -51 24z"/>
<path d="M3678 3080 c33 -31 52 -38 52 -20 0 11 -59 50 -75 50 -5 0 5 -14 23
-30z"/>
<path d="M3960 2913 c0 -7 4 -13 9 -13 4 0 7 -12 6 -27 -3 -39 -4 -43 -14 -43
-5 0 -7 9 -4 20 8 28 -15 25 -28 -4 -10 -21 -6 -31 29 -80 l40 -56 1 84 c1 70
-2 87 -18 107 -11 13 -20 18 -21 12z"/>
<path d="M446 2883 c-6 -14 -5 -15 5 -6 7 7 10 15 7 18 -3 3 -9 -2 -12 -12z"/>
<path d="M396 2803 c-35 -71 -40 -84 -62 -153 -9 -30 -21 -60 -26 -67 -6 -7
-8 -18 -5 -25 3 -8 9 -1 16 16 6 15 26 54 44 85 34 58 77 163 77 187 0 29 -17
12 -44 -43z"/>
<path d="M3606 2811 c-4 -5 -2 -11 2 -13 5 -1 40 -41 78 -88 37 -47 74 -91 81
-98 30 -31 126 -186 172 -277 29 -59 50 -91 50 -78 1 12 -3 25 -9 28 -5 3 -10
15 -10 26 0 10 -4 27 -10 37 -5 9 -32 64 -59 122 -55 114 -59 120 -189 258
-87 93 -96 100 -106 83z"/>
<path d="M30 1970 c-29 -16 -13 -296 17 -307 11 -4 12 -8 3 -13 -9 -6 -9 -13
-1 -28 6 -11 11 -34 11 -51 0 -17 4 -31 9 -31 5 0 12 -23 16 -51 4 -27 10 -48
13 -45 3 3 11 -2 18 -12 11 -14 13 -14 14 -2 0 26 -21 90 -30 90 -4 0 -11 48
-15 108 -4 59 -11 114 -16 123 -4 9 -9 54 -10 100 -3 107 -9 131 -29 119z"/>
<path d="M356 1577 c3 -10 9 -15 12 -12 3 3 0 11 -7 18 -10 9 -11 8 -5 -6z"/>
<path d="M100 1408 c0 -10 4 -18 9 -18 5 0 12 -8 14 -17 4 -14 5 -15 6 -2 0 8
-6 24 -14 35 -13 17 -14 17 -15 2z"/>
<path d="M3732 1388 c-7 -7 -12 -16 -12 -21 0 -6 -8 -16 -17 -23 -10 -7 -15
-16 -10 -20 8 -8 47 29 47 46 0 5 5 10 10 10 6 0 10 5 10 10 0 14 -13 13 -28
-2z"/>
<path d="M137 1353 c-4 -3 -7 -11 -7 -17 0 -6 5 -5 12 2 6 6 9 14 7 17 -3 3
-9 2 -12 -2z"/>
<path d="M3986 1135 c-3 -9 -6 -29 -5 -43 1 -22 3 -19 10 12 10 40 6 60 -5 31z"/>
<path d="M3565 1083 c-10 -21 -19 -42 -20 -48 -5 -27 -18 -55 -26 -55 -5 0 -9
-8 -9 -17 -1 -20 -30 -64 -30 -44 0 7 -4 10 -9 7 -5 -4 -7 4 -4 16 5 21 4 21
-10 8 -13 -13 -167 -238 -167 -244 0 -2 24 -1 53 2 46 4 57 1 85 -23 l31 -26
33 36 c32 36 65 85 90 133 10 20 8 26 -15 46 -15 13 -27 30 -27 38 0 9 25 46
55 84 30 38 55 74 55 80 0 15 -34 44 -51 44 -9 0 -24 -17 -34 -37z m-95 -188
c0 -8 -49 -53 -53 -48 -6 5 34 50 46 52 4 1 7 -1 7 -4z"/>
<path d="M630 1045 c0 -3 16 -28 35 -56 19 -28 35 -56 35 -61 0 -22 25 1 27
25 1 19 -9 35 -38 61 -35 33 -59 45 -59 31z"/>
<path d="M3961 1024 c0 -11 3 -14 6 -6 3 7 2 16 -1 19 -3 4 -6 -2 -5 -13z"/>
<path d="M739 968 c0 -2 -2 -12 -4 -23 -1 -11 -5 -27 -7 -35 -3 -8 -3 -12 -1
-7 3 4 12 7 21 6 10 0 12 -3 5 -6 -20 -7 9 -52 61 -97 26 -21 46 -47 46 -58 0
-10 5 -16 10 -13 6 3 10 1 10 -5 0 -6 5 -8 11 -4 8 4 9 -1 4 -16 -5 -15 -4
-20 4 -16 13 8 45 -20 37 -32 -2 -4 4 -8 14 -8 16 0 13 6 -13 37 -55 62 -68
80 -120 163 -28 45 -57 85 -64 89 -8 5 -11 12 -8 18 4 5 4 9 1 9 -3 0 -6 -1
-7 -2z"/>
<path d="M210 911 c0 -22 7 -35 25 -47 14 -9 25 -23 25 -31 0 -8 12 -29 28
-46 52 -60 247 -257 254 -257 3 0 25 -17 47 -38 22 -21 58 -48 78 -62 21 -13
50 -40 64 -59 20 -28 57 -52 165 -105 150 -75 157 -78 224 -96 25 -7 55 -16
68 -21 13 -5 40 -9 62 -9 21 0 51 -5 65 -10 14 -6 62 -13 106 -16 72 -6 80 -5
77 11 -6 34 61 45 282 45 200 0 271 9 199 25 -19 4 -46 7 -61 7 -16 0 -28 3
-28 8 0 5 -12 5 -27 1 -38 -10 -293 -3 -318 9 -11 5 -47 11 -80 14 -98 8 -197
22 -245 36 -76 21 -219 81 -309 130 -47 26 -102 56 -121 66 -19 11 -37 21 -40
25 -3 3 -23 16 -45 29 -22 14 -69 45 -104 70 -88 63 -114 78 -127 73 -7 -2
-18 4 -25 15 -28 39 -96 118 -146 171 -29 30 -53 58 -53 62 0 5 -9 13 -20 19
-18 10 -20 8 -20 -19z m160 -177 c0 -8 -4 -12 -10 -9 -5 3 -10 10 -10 16 0 5
5 9 10 9 6 0 10 -7 10 -16z"/>
<path d="M1010 600 c13 -11 25 -20 28 -20 3 0 -3 9 -13 20 -10 11 -23 20 -28
20 -6 0 0 -9 13 -20z"/>
<path d="M3140 559 c-172 -158 -490 -325 -703 -369 -45 -9 -57 -15 -53 -27 3
-8 6 -19 6 -24 0 -5 9 -9 21 -9 12 0 23 -8 26 -20 6 -21 16 -21 132 7 205 48
440 163 660 323 l43 32 -38 39 c-26 27 -37 47 -37 69 0 16 -1 30 -1 30 -1 -1
-26 -24 -56 -51z"/>
<path d="M1060 561 c0 -6 4 -13 10 -16 6 -3 7 1 4 9 -7 18 -14 21 -14 7z"/>
<path d="M1207 459 c7 -7 15 -10 18 -7 3 3 -2 9 -12 12 -14 6 -15 5 -6 -5z"/>
<path d="M1235 441 c-6 -11 13 -26 22 -17 4 3 1 6 -6 6 -7 0 -9 5 -6 10 3 6 4
10 1 10 -3 0 -7 -4 -11 -9z"/>
<path d="M1287 419 c7 -7 15 -10 18 -7 3 3 -2 9 -12 12 -14 6 -15 5 -6 -5z"/>
<path d="M0 210 l0 -210 150 0 c83 0 150 4 150 9 0 22 -103 308 -117 323 -8
10 -36 25 -62 34 -25 10 -58 26 -73 36 -14 10 -31 18 -37 18 -8 0 -11 -64 -11
-210z"/>
<path d="M1365 380 c-3 -6 1 -7 9 -4 18 7 21 14 7 14 -6 0 -13 -4 -16 -10z"/>
<path d="M1808 223 c7 -3 16 -2 19 1 4 3 -2 6 -13 5 -11 0 -14 -3 -6 -6z"/>
<path d="M360 193 c0 -5 13 -48 29 -98 l29 -90 46 -3 45 -3 -34 69 c-19 38
-48 84 -65 101 -30 30 -50 39 -50 24z"/>
<path d="M2110 139 c-36 -10 -78 -19 -95 -20 l-30 -1 31 -9 c17 -5 71 -5 120
-1 82 6 89 9 92 30 3 18 -1 22 -25 21 -15 -1 -57 -10 -93 -20z"/>
<path d="M1196 91 c5 -5 23 -13 39 -16 l30 -7 -29 16 c-31 18 -56 22 -40 7z"/>
<path d="M3953 24 c-43 -19 -41 -24 7 -24 33 0 40 3 40 20 0 23 -4 23 -47 4z"/>
</g>
</svg>
